<svg width="29" height="29" viewBox="0 0 29 29" fill="none" xmlns="http://www.w3.org/2000/svg">
<path d="M4.49727 1.25762C3.96485 1.4502 2.16368 2.24316 1.86915 2.41309C1.63126 2.56035 1.37071 2.87754 1.23477 3.21738C1.0422 3.67051 1.12149 4.59941 1.57462 6.93301C2.66212 12.5857 4.57657 16.7658 7.44259 19.7904C8.94923 21.3764 10.082 22.4072 11.1922 23.1889C14.4094 25.4545 18.4875 26.9158 23.959 27.7654C25.2957 27.9807 25.6922 27.9354 26.2586 27.5162C26.5418 27.3123 26.6891 27.0404 27.3574 25.4885C27.8445 24.3557 27.8672 24.2877 27.8672 23.8799C27.8672 23.3475 27.7199 23.0076 27.3574 22.6564C27.1309 22.4412 26.7457 22.2486 23.925 21.0365C20.7758 19.6771 20.7305 19.6545 20.334 19.6545C19.609 19.6545 19.0199 20.051 18.7141 20.7646L18.5668 21.1045L18.0231 20.9119C15.9047 20.1416 13.8543 18.9295 12.2117 17.4908C11.7246 17.0604 11.4641 16.7658 10.841 15.9729C9.68555 14.4889 8.74532 12.7783 8.09962 10.9885L7.89571 10.4447L8.30352 10.2521C9.00587 9.9123 9.34571 9.39121 9.34571 8.67754C9.34571 8.28105 9.33438 8.24707 8.00899 5.16582C7.27266 3.45527 6.59298 1.95996 6.50235 1.82402C6.21915 1.40488 5.64141 1.11035 5.10899 1.11035C4.97305 1.11035 4.70118 1.17832 4.49727 1.25762ZM5.44884 2.08457C5.58477 2.14121 5.72071 2.25449 5.77735 2.32246C5.82266 2.39043 6.44571 3.80645 7.17071 5.47168C8.40548 8.31504 8.47345 8.49629 8.45079 8.76816C8.40548 9.16465 8.23556 9.32324 7.47657 9.65176C7.13673 9.79902 6.85352 9.95762 6.85352 10.0029C6.85352 10.1389 7.37462 11.6455 7.64649 12.2572C8.79063 14.942 10.5805 17.4002 12.4383 18.8275C13.8656 19.915 15.2816 20.7533 16.8449 21.4104C17.5133 21.6936 18.884 22.158 19.0199 22.158C19.0652 22.158 19.2125 21.8748 19.3598 21.535C19.6883 20.7646 19.8469 20.5947 20.266 20.5721C20.5492 20.5494 20.7191 20.6174 23.5512 21.8408C25.1938 22.5545 26.5984 23.1775 26.6777 23.2229C26.859 23.3361 26.9949 23.6307 27.0063 23.8799C27.0176 24.0158 26.8363 24.4916 26.4738 25.3186C25.8621 26.7346 25.8395 26.7799 25.5902 26.9158C25.3297 27.0518 24.8992 27.0291 23.4832 26.7912C18.2949 25.9303 14.3188 24.4123 11.3734 22.2146C10.184 21.3197 8.43946 19.6545 7.43126 18.4424C5.06368 15.599 3.47774 11.9061 2.50352 7.00098C2.16368 5.30176 1.98243 3.96504 2.03907 3.69316C2.1297 3.27402 2.23165 3.20605 3.59102 2.61699C5.18829 1.89199 5.08634 1.91465 5.44884 2.08457Z" fill="#695032"/>
</svg>
