<svg width="29" height="29" viewBox="0 0 29 29" fill="none" xmlns="http://www.w3.org/2000/svg">
<path d="M14.7152 1.13281C8.83594 1.13281 4.40665 5.52813 4.40665 11.3734C4.40665 16.4484 8.20157 21.0703 14.3414 27.7086C14.432 27.8105 14.568 27.8672 14.7039 27.8672C14.8398 27.8672 14.9758 27.8105 15.0664 27.7086C22.1805 20.3227 24.582 16.5844 24.582 11.3621C24.5934 5.63008 20.2547 1.13281 14.7152 1.13281ZM14.7266 26.6211C8.97188 20.3566 5.42618 16.0066 5.42618 11.3621C5.42618 6.01523 9.33438 2.14102 14.7152 2.14102C19.6883 2.14102 23.5852 6.19648 23.5852 11.3621C23.5738 16.1879 21.3309 19.6996 14.7266 26.6211ZM14.7152 7.05742C12.325 7.05742 10.3766 8.99453 10.3766 11.3621C10.3766 13.7297 12.325 15.6668 14.7152 15.6668C17.1055 15.6668 19.0539 13.7297 19.0539 11.3621C19.0539 8.99453 17.1055 7.05742 14.7152 7.05742ZM14.7152 14.6699C12.8801 14.6699 11.3848 13.1859 11.3848 11.3621C11.3848 9.53828 12.8801 8.0543 14.7152 8.0543C16.5504 8.0543 18.0457 9.53828 18.0457 11.3621C18.0457 13.1859 16.5504 14.6699 14.7152 14.6699Z" fill="#695032"/>
</svg>
