<svg width="29" height="29" viewBox="0 0 29 29" fill="none" xmlns="http://www.w3.org/2000/svg">
<path d="M21.5801 1.13281H7.41992C3.96484 1.13281 1.13281 3.96484 1.13281 7.41992V21.5687C1.13281 25.0352 3.96484 27.8672 7.41992 27.8672H21.5687C25.0238 27.8672 27.8559 25.0352 27.8559 21.5801V7.41992C27.8672 3.96484 25.0352 1.13281 21.5801 1.13281ZM26.2926 21.5801C26.2926 24.1855 24.1742 26.2926 21.5801 26.2926H7.41992C4.82578 26.2926 2.70742 24.1742 2.70742 21.5801V12.1437H7.74844C7.29531 13.1066 7.03477 14.1602 7.03477 15.293C7.03477 19.4164 10.3879 22.7582 14.5 22.7582C18.6234 22.7582 21.9652 19.4051 21.9652 15.293C21.9652 14.1715 21.6934 13.1066 21.2516 12.1437H26.2926V21.5801ZM20.402 15.2816C20.402 18.5328 17.7512 21.1836 14.5 21.1836C11.2488 21.1836 8.59805 18.5328 8.59805 15.2816C8.59805 12.0305 11.2488 9.37969 14.5 9.37969C17.7512 9.37969 20.402 12.0305 20.402 15.2816ZM20.2434 10.5691C18.8727 8.90391 16.8223 7.81641 14.5 7.81641C12.1777 7.81641 10.1273 8.90391 8.75664 10.5691H2.70742V7.41992C2.70742 4.82578 4.82578 2.70742 7.41992 2.70742H21.5687C24.1742 2.70742 26.2812 4.82578 26.2812 7.41992V10.5691H20.2434ZM23.857 5.41484V7.45391C23.857 7.91836 23.4719 8.30352 23.0074 8.30352H20.8551C20.3793 8.30352 19.9941 7.91836 19.9941 7.45391V5.41484C19.9941 4.95039 20.3793 4.56523 20.8551 4.56523H23.0074C23.4832 4.55391 23.857 4.93906 23.857 5.41484Z" fill="#695032"/>
</svg>
