<svg width="29" height="29" viewBox="0 0 29 29" fill="none" xmlns="http://www.w3.org/2000/svg">
<path d="M1.13281 14.4999V23.4944H14.5H27.8672V14.4999V5.50537H14.5H1.13281V14.4999ZM25.0465 6.87607C25.0238 6.9667 14.5566 17.9663 14.5 17.9663C14.466 17.9663 6.78555 9.92334 4.30469 7.28389L3.86289 6.81943H14.466C21.4441 6.80811 25.0691 6.83076 25.0465 6.87607ZM8.94922 14.0581C11.9738 17.2413 14.4773 19.8468 14.5 19.8468C14.5227 19.8468 17.2301 17.0261 20.5039 13.5823C23.7777 10.1386 26.4738 7.31787 26.4852 7.31787C26.4965 7.31787 26.5078 10.6597 26.5078 14.7491V22.1804H14.5H2.50352V14.7265L2.51484 7.28389L2.9793 7.771C3.23984 8.0542 5.92461 10.8862 8.94922 14.0581Z" fill="#695032"/>
</svg>
