<svg width="15" height="15" viewBox="0 0 15 15" fill="none" xmlns="http://www.w3.org/2000/svg">
<g clip-path="url(#clip0_3_44)">
<path d="M7.5 0.585938C3.67969 0.585938 0.585938 3.67969 0.585938 7.5C0.585938 9.08789 1.125 10.5586 2.02734 11.7246V11.8301C2.05078 11.8242 2.06836 11.8184 2.0918 11.8066C3.35742 13.3945 5.30859 14.4141 7.5 14.4141C9.72656 14.4141 11.7012 13.3652 12.9668 11.7363H12.9727V11.7246C13.875 10.5527 14.4141 9.08789 14.4141 7.5C14.4141 3.67969 11.3203 0.585938 7.5 0.585938ZM13.834 7.21289H10.377C10.3594 6.4043 10.2598 5.58984 10.084 4.75781C11.0742 4.63477 12.0176 4.43555 12.8965 4.17187C13.4473 5.05664 13.7812 6.09961 13.834 7.21289ZM5.19727 7.21289C5.21484 6.41016 5.31445 5.60742 5.49609 4.79297C6.19336 4.86914 6.9082 4.91016 7.64062 4.91016C8.27344 4.91016 8.90039 4.88086 9.50391 4.82227C9.67969 5.63086 9.7793 6.42188 9.79688 7.21289H5.19727ZM9.80273 7.78711C9.7793 8.67188 9.66211 9.5625 9.44531 10.4648C8.85938 10.4121 8.25586 10.3828 7.64648 10.3828C6.9375 10.3828 6.24023 10.4238 5.56641 10.4941C5.34375 9.58008 5.2207 8.68945 5.20312 7.79297L9.80273 7.78711ZM12.5566 3.67383C11.7422 3.90234 10.8633 4.07812 9.94922 4.18945C9.70312 3.25195 9.35156 2.29102 8.88281 1.3125C10.3711 1.64648 11.666 2.50195 12.5566 3.67383ZM7.5 1.16016C7.74609 1.16016 7.99219 1.17188 8.23242 1.20117C8.73047 2.25 9.10547 3.25781 9.36914 4.24805C8.80664 4.30078 8.22656 4.32422 7.64062 4.32422C6.95508 4.32422 6.28125 4.28906 5.63086 4.21875C5.89453 3.23438 6.26953 2.23242 6.76172 1.19531C7.00781 1.17773 7.25391 1.16016 7.5 1.16016ZM6.11719 1.3125C5.6543 2.2793 5.30859 3.22852 5.0625 4.1543C4.16016 4.03125 3.29883 3.84375 2.50195 3.60352C3.38672 2.4668 4.6582 1.64062 6.11719 1.3125ZM2.15625 4.0957C3.02344 4.37109 3.94922 4.58203 4.92773 4.7168C4.74023 5.56055 4.64648 6.39258 4.62305 7.21289H1.16602C1.21875 6.07031 1.57617 5.00391 2.15625 4.0957ZM2.31445 11.1445C1.64062 10.1836 1.22461 9.03516 1.16602 7.78711H4.62305C4.64648 8.73047 4.76953 9.65039 4.98633 10.5586C4.04883 10.6934 3.15234 10.8867 2.31445 11.1445ZM2.68945 11.625C3.45703 11.4023 4.27734 11.2324 5.13867 11.1211C5.38477 11.9883 5.71289 12.8438 6.11719 13.6875C4.75781 13.3828 3.5625 12.6445 2.68945 11.625ZM6.76758 13.7988C6.32227 12.8613 5.9707 11.9531 5.71875 11.0566C6.3457 10.9922 6.99023 10.9629 7.65234 10.9629C8.21484 10.9629 8.76562 10.9863 9.30469 11.0332C9.04688 11.9355 8.69531 12.8496 8.24414 13.7988C8.00391 13.8281 7.75781 13.8398 7.51172 13.8398C7.26562 13.8398 7.00781 13.8223 6.76758 13.7988ZM8.88281 13.6875C9.29297 12.832 9.62695 11.9648 9.87305 11.0859C10.7461 11.1855 11.584 11.3496 12.3691 11.5605C11.4902 12.6152 10.2715 13.377 8.88281 13.6875ZM12.7324 11.0742C11.8828 10.8281 10.9688 10.6406 10.0195 10.5234C10.2305 9.62695 10.3535 8.71289 10.377 7.78711H13.834C13.7754 9.00586 13.377 10.1309 12.7324 11.0742Z" fill="#695032"/>
</g>
<defs>
<clipPath id="clip0_3_44">
<rect width="15" height="15" fill="white"/>
</clipPath>
</defs>
</svg>
